<svg xmlns="http://www.w3.org/2000/svg" xmlns:xlink="http://www.w3.org/1999/xlink" width="500" zoomAndPan="magnify" viewBox="0 0 375 374.999991" height="500" preserveAspectRatio="xMidYMid meet" version="1.0"><defs><clipPath id="905ff3b16c"><path d="M 120 149 L 255 149 L 255 356.25 L 120 356.25 Z M 120 149 " clip-rule="nonzero"/></clipPath><clipPath id="575502246a"><path d="M 26 149 L 188 149 L 188 356.25 L 26 356.25 Z M 26 149 " clip-rule="nonzero"/></clipPath><clipPath id="0fc46bd3d6"><path d="M 5 149 L 188 149 L 188 356.25 L 5 356.25 Z M 5 149 " clip-rule="nonzero"/></clipPath><clipPath id="255ed4f204"><path d="M 187 149 L 349 149 L 349 356.25 L 187 356.25 Z M 187 149 " clip-rule="nonzero"/></clipPath><clipPath id="5f1cb1b3cc"><path d="M 187 149 L 370 149 L 370 356.25 L 187 356.25 Z M 187 149 " clip-rule="nonzero"/></clipPath></defs><g clip-path="url(#905ff3b16c)"><path fill="#e24329" d="M 187.605469 356.207031 L 254.777344 149.589844 L 120.445312 149.59375 L 187.605469 356.214844 Z M 187.605469 356.207031 " fill-opacity="1" fill-rule="nonzero"/></g><g clip-path="url(#575502246a)"><path fill="#fc6d26" d="M 187.605469 356.207031 L 120.445312 149.589844 L 26.316406 149.59375 L 187.597656 356.214844 Z M 187.605469 356.207031 " fill-opacity="1" fill-rule="nonzero"/></g><g clip-path="url(#0fc46bd3d6)"><path fill="#fca326" d="M 26.316406 149.59375 L 5.90625 212.386719 C 4.042969 218.113281 6.082031 224.386719 10.957031 227.921875 L 187.609375 356.207031 L 26.328125 149.589844 L 26.324219 149.59375 Z M 26.316406 149.59375 " fill-opacity="1" fill-rule="nonzero"/></g><path fill="#e24329" d="M 26.316406 149.59375 L 120.445312 149.59375 L 79.992188 25.148438 C 77.914062 18.746094 68.851562 18.746094 66.769531 25.148438 L 26.316406 149.597656 Z M 26.316406 149.59375 " fill-opacity="1" fill-rule="nonzero"/><g clip-path="url(#255ed4f204)"><path fill="#fc6d26" d="M 187.605469 356.207031 L 254.777344 149.589844 L 348.902344 149.59375 L 187.605469 356.214844 Z M 187.605469 356.207031 " fill-opacity="1" fill-rule="nonzero"/></g><g clip-path="url(#5f1cb1b3cc)"><path fill="#fca326" d="M 348.902344 149.59375 L 369.320312 212.386719 C 371.175781 218.113281 369.136719 224.386719 364.273438 227.921875 L 187.605469 356.207031 L 348.902344 149.589844 Z M 348.902344 149.59375 " fill-opacity="1" fill-rule="nonzero"/></g><path fill="#e24329" d="M 348.902344 149.59375 L 254.777344 149.59375 L 295.230469 25.148438 C 297.3125 18.746094 306.382812 18.746094 308.449219 25.148438 L 348.902344 149.597656 Z M 348.902344 149.59375 " fill-opacity="1" fill-rule="nonzero"/></svg>